<mxfile host="app.diagrams.net" modified="2024-07-13T03:22:54.143Z" agent="Mozilla/5.0 (Macintosh; Intel Mac OS X 10_15_7) AppleWebKit/537.36 (KHTML, like Gecko) Chrome/126.0.0.0 Safari/537.36" version="24.2.0" etag="RiomTtZ-pYnzR7sbRvfR" type="github">
  <diagram name="第 1 页" id="T6tjTBDRIPamw2wBfF-t">
    <mxGraphModel>
      <root>
        <mxCell id="0" />
        <mxCell id="1" parent="0" />
      </root>
    </mxGraphModel>
  </diagram>
</mxfile>
